<?xml version="1.0" encoding="utf-8"?>
<svg xmlns="http://www.w3.org/2000/svg" viewBox="0 0 39.8 48.5">
  <path
    d="M19.9,17.1c-1.6,0-2.9,1.3-2.9,2.8c0,1.6,1.3,2.9,2.8,2.9c1.6,0,
       2.9-1.3,2.9-2.8c0,0,0,0,0,0C22.8,18.3,21.5,17.1,19.9,17.1
       z M19.9,0C8.9,0,0,8.9,0,19.9C0,28.7,5.8,36.5,14.3,39l4.4,8.8c0.4,0.7,
       1.2,1,1.9,0.6c0.3-0.1,0.5-0.4,0.6-0.6l4.4-8.8
       C36.1,35.9,42.1,24.8,39,14.3C36.5,5.8,28.7,0,19.9,0z M19.9,25.6c-3.1,
       0-5.7-2.5-5.7-5.7s2.5-5.7,5.7-5.7s5.7,2.5,5.7,5.7
       S23.1,25.6,19.9,25.6L19.9,25.6z"
  />
</svg>
