<?xml version="1.0" encoding="utf-8"?>
<svg xmlns="http://www.w3.org/2000/svg" viewBox="0 0 40.28 48.91">
  <path
    transform="translate(-4.86 -0.54)"
    d="M26.52,8.21l4.56-4.55-2-2L26.43,4.25V.54H23.57V4.25L21,1.63l-2,2,4.56,
       4.55C12.73,12.06,4.86,21.47,4.86,21.47c2.52,0,2.52,1.81,5,1.81s2.51-1.81,
       5-1.81,2.52,1.81,5,1.81,2.52-1.81,5-1.81,2.52,1.81,5,1.81,2.52-1.81,5-1.81,
       2.52,1.81,5,1.81,2.52-1.81,5-1.81C45.14,21.47,37.27,12.06,26.52,8.21ZM40.1,
       26.15a6.63,6.63,0,0,1-4.19-1.45c-.48-.35-.51-.37-.84-.37s-.36,0-.84.37a6.79,
       6.79,0,0,1-8.39,0c-.48-.35-.51-.37-.84-.37s-.36,0-.84.37a6.79,6.79,0,0,1-8.39,
       0c-.48-.35-.51-.37-.84-.37s-.36,0-.84.37A6.63,6.63,0,0,1,9.9,26.15a6.85,6.85,0,
       0,1-2.13-.33V49.46h13V41a4.13,4.13,0,0,1,4.13-4.13h.26A4.13,4.13,0,0,1,29.26,
       41v8.44h13V25.82A6.85,6.85,0,0,1,40.1,26.15Z"
  />
</svg>
