<svg xmlns="http://www.w3.org/2000/svg" viewBox="0 0 60 60"><path d="M51.4 54.9h-3.6V9.7c0-1-.8-1.8-1.8-1.8H32.1V3.3c0-1-.8-1.8-1.8-1.8H17.4c-1 0-1.8.8-1.8 1.8v4.6h-1.5c-1 0-1.8.8-1.8 1.8v45.2H8.6c-1 0-1.8.8-1.9 1.8 0 1.1.8 1.9 1.8 1.9h13.1c.5 0 .9-.4.9-.9V47h-.8c-1 0-1.8-.8-1.9-1.8 0-1.1.8-1.9 1.8-1.9h16.3c1 0 1.8.8 1.9 1.8 0 1.1-.8 1.9-1.8 1.9h-.8v10.6c0 .5.4.9.9.9h13.1c1 0 1.9-.9 1.8-1.9.2-1-.6-1.7-1.6-1.7zM25.5 39.6h-2.1c-1 0-1.8-.8-1.8-1.8s.8-1.8 1.8-1.8h2.1c1 0 1.8.8 1.8 1.8.1.9-.8 1.8-1.8 1.8zm0-7h-2.1c-1 0-1.8-.8-1.8-1.8s.8-1.8 1.8-1.8h2.1c1 0 1.8.8 1.8 1.8.1 1-.8 1.8-1.8 1.8zm0-6.9h-2.1c-1 0-1.8-.8-1.8-1.8s.8-1.8 1.8-1.8h2.1c1 0 1.8.8 1.8 1.8s-.8 1.8-1.8 1.8zm0-6.9h-2.1c-1 0-1.8-.8-1.8-1.8s.8-1.8 1.8-1.8h2.1c1 0 1.8.8 1.8 1.8.1 1-.8 1.8-1.8 1.8zm11 20.8h-2.1c-1 0-1.8-.8-1.8-1.8s.8-1.8 1.8-1.8h2.1c1 0 1.8.8 1.8 1.8 0 .9-.8 1.8-1.8 1.8zm0-7h-2.1c-1 0-1.8-.8-1.8-1.8s.8-1.8 1.8-1.8h2.1c1 0 1.8.8 1.8 1.8s-.8 1.8-1.8 1.8zm0-6.9h-2.1c-1 0-1.8-.8-1.8-1.8s.8-1.8 1.8-1.8h2.1c1 0 1.8.8 1.8 1.8s-.8 1.8-1.8 1.8zm0-6.9h-2.1c-1 0-1.8-.8-1.8-1.8s.8-1.8 1.8-1.8h2.1c1 0 1.8.8 1.8 1.8s-.8 1.8-1.8 1.8zM26.3 57.6V48c0-.5.4-.9.9-.9h5.5c.5 0 .9.4.9.9v9.7c0 .5-.4.9-.9.9h-5.5c-.5 0-.9-.4-.9-1z"/></svg>