<?xml version="1.0" encoding="utf-8"?>
<svg xmlns="http://www.w3.org/2000/svg" viewBox="0 0 60 60">
  <path
    d="M54.2 17.3l-5.5-2.7v-1.9c0-1-.8-1.8-1.8-1.8h-4.2V9.1c0-3-2.4-5.4-5.4-5.4H11.8c-3
       0-5.4 2.4-5.4 5.4v46.6H4.6c-1 0-1.8.8-1.8 1.8s.8 1.8 1.8 1.8h39.9c1 0
       1.8-.8 1.8-1.8s-.8-1.8-1.8-1.8h-1.8V36.3h1.8c1 0 1.8.8 1.8 1.8v8.5c0 3
       2.4 5.4 5.4 5.4 3 0 5.4-2.4 5.4-5.4V22.2c.1-2.1-1-3.9-2.9-4.9zM24.6
       46c-4.3 0-7.9-3.5-7.9-7.9 0-1.6.5-3.1 1.3-4.4l5-7.5c.7-1 2.3-1 3 0l5
       7.5c.9 1.3 1.3 2.8 1.3 4.4.1 4.3-3.4 7.9-7.7 7.9zm10.8-26c0 1-.8 1.8-1.8
       1.8H15.5c-1 0-1.8-.8-1.8-1.8v-7.3c0-1 .8-1.8 1.8-1.8h18.2c1 0 1.8.8 1.8
       1.8l-.1 7.3zm7.3-5.5h2.4v10.9h-2.4V14.5zm10.9 32.1c0 1-.8 1.8-1.8
       1.8s-1.8-.8-1.8-1.8v-8.5c0-3-2.4-5.4-5.4-5.4h-1.8V29H47c1 0 1.8-.8
       1.8-1.8v-8.6l3.8 1.9c.6.3 1 .9 1 1.6v24.5z"
  />
</svg>
