<svg xmlns="http://www.w3.org/2000/svg" viewBox="0 0 512 512"><path d="M478.75 126.098l-50.228-25.114V83.478c0-9.223-7.479-16.696-16.696-16.696H372.87V50.087C372.87 22.468 350.402 0 322.783 0H89.044c-27.62 0-50.087 22.468-50.087 50.087v428.522H22.261c-9.22 0-16.696 7.475-16.696 16.696S13.04 512 22.261 512h367.304c9.22 0 16.696-7.475 16.696-16.696s-7.475-16.696-16.696-16.696H372.87V300.522h16.696c9.206 0 16.696 7.49 16.696 16.696v77.913c0 27.619 22.468 50.087 50.087 50.087 27.619 0 50.087-22.468 50.087-50.087V170.897c-.001-19.092-10.61-36.261-27.686-44.799zM205.935 389.565c-39.891 0-72.348-32.456-72.348-72.348 0-14.358 4.206-28.245 12.163-40.152l46.305-69.299c6.195-9.272 21.565-9.272 27.76 0l46.305 69.294c7.955 11.913 12.162 25.799 12.162 40.158.001 39.891-32.456 72.347-72.347 72.347zm100.152-239.304c0 9.223-7.479 16.696-16.696 16.696H122.435c-9.217 0-16.696-7.473-16.696-16.696V83.478c0-9.223 7.479-16.696 16.696-16.696h166.956c9.217 0 16.696 7.473 16.696 16.696v66.783zm66.783-50.087h22.261v100.174H372.87V100.174zM473.043 395.13c0 9.206-7.49 16.696-16.696 16.696-9.206 0-16.696-7.49-16.696-16.696v-77.913c0-27.619-22.468-50.087-50.087-50.087H372.87v-33.391h38.957c9.217 0 16.696-7.473 16.696-16.696V138.32l35.294 17.647c5.695 2.843 9.228 8.565 9.228 14.929V395.13z"/></svg>