<?xml version="1.0" encoding="utf-8"?>
<svg xmlns="http://www.w3.org/2000/svg" viewBox="0 0 60 60">
  <path
    d="M59.1 29.2L33.9 4.5c-2.2-2.1-5.7-2.1-7.8 0L.9 29.2c-.7.7-.7 1.8 0 2.5s1.8.7
       2.5 0L28.5 7c.8-.8 2.1-.8 3 0l25.2 24.7c.3.3.8.5 1.2.5.4 0 .9-.2 1.2-.5.7-.7.7-1.8
       0-2.5zm-27.4 4.9v-5.6h-3.5v5.6c0 1-.8 1.7-1.7 1.7h-5.6v3.5h5.6c1 0 1.7.8 1.7
       1.7v5.6h3.5V41c0-1 .8-1.7 1.7-1.7H39v-3.5h-5.6c-.9 0-1.7-.8-1.7-1.7zM30
       10.4L5.8 34.2c-.1.1-.3.3-.5.4v15c0 4.2 3.4 7.5 7.5 7.5h34.3c4.2 0 7.5-3.4
       7.5-7.5v-15c-.2-.1-.3-.3-.5-.4L30 10.4zM42.5 41c0 1-.8 1.7-1.7 1.7h-5.6v5.6c0
       1-.8 1.7-1.7 1.7h-6.9c-1 0-1.7-.8-1.7-1.7v-5.6h-5.6c-1 0-1.7-.8-1.7-1.7v-6.9c0-1
       .8-1.7 1.7-1.7h5.6v-5.6c0-1 .8-1.7 1.7-1.7h6.9c1 0 1.7.8 1.7
       1.7v5.6h5.6c1 0 1.7.8 1.7 1.7V41z"
  />
</svg>
