<svg xmlns="http://www.w3.org/2000/svg" viewBox="0 0 60 60"><path d="M1.8 57.3h56.5v1.9H1.8v-1.9zm41.8-16.6c0 1.9-.6 3.8-1.6 5.4.2.5.5.9.8 1.3 1.5 1.5 4 1.5 5.5 0 .7-.7 1.1-1.7 1.1-2.7v-4.9h-5.9c.1.3.1.6.1.9zm2-11.7c-2.2 0-3.9 1.7-3.9 3.9v2c.7.9 1.2 1.8 1.5 2.9h6.3v-4.9c0-2.1-1.7-3.9-3.9-3.9zm2.9 5.9h-1.9V33c0-.5-.4-1-1-1v-2c1.6 0 2.9 1.3 2.9 2.9v2zm-40.9-2h9.7v1H7.6v-1zm23.3 15c1 .4 2 .6 3 .6 4.3 0 7.8-3.5 7.8-7.8 0-1-.2-2.1-.6-3L30.9 47.9z"/><path d="M56.3 55.3V21.2c-.8.6-1.9 1-2.9 1-1.5 0-3-.7-3.9-2a4.71 4.71 0 01-6.7 1c-.4-.3-.8-.6-1-1a4.71 4.71 0 01-6.7 1c-.4-.3-.8-.6-1-1a4.71 4.71 0 01-6.7 1c-.4-.3-.8-.6-1-1a4.71 4.71 0 01-6.7 1c-.4-.3-.8-.6-1-1a4.71 4.71 0 01-6.7 1c-.4-.3-.8-.6-1-1-.9 1.2-2.4 2-3.9 2-1.1 0-2.1-.4-2.9-1v34.1h1.9V29c0-.5.4-1 1-1h11.7c.5 0 1 .4 1 1v26.3h36.5zM21.2 25.1c0-.5.4-1 1-1h31.2c.5 0 1 .4 1 1v27.3c0 .5-.4 1-1 1H22.2c-.5 0-1-.4-1-1V25.1zM3.7.8h52.6v1.9H3.7V.8z"/><path d="M38.7 34.6L27.8 45.5c.4.5.9 1 1.4 1.4l10.8-11c-.4-.5-.8-.9-1.3-1.3zM2.7 4.7h54.5v5.8H2.7V4.7zm31.2 28.2c-4.3 0-7.8 3.5-7.8 7.8 0 1 .2 2.1.6 3l10.2-10.2c-.9-.4-2-.6-3-.6z"/><path d="M52.4 26.1H23.2v25.3h29.2V26.1zm-1 18.5c0 3.2-2.5 5.8-5.8 5.9-2 0-3.9-1-5-2.8-3.9 3.7-10 3.6-13.8-.2s-3.6-10 .2-13.8c3.4-3.3 8.8-3.7 12.6-.8 0-3.2 2.6-5.8 5.8-5.8s5.8 2.6 5.8 5.8v11.7zM25.1 17.3v-4.9h-5.8v4.9c0 1.6 1.3 2.9 2.9 2.9s2.9-1.2 2.9-2.9zm15.6 0v-4.9h-5.8v4.9c0 1.6 1.3 2.9 2.9 2.9s2.9-1.2 2.9-2.9zm-23.4 0v-4.9h-5.8v4.9c0 1.6 1.3 2.9 2.9 2.9s2.9-1.2 2.9-2.9zm31.2 0v-4.9h-5.8v4.9c0 1.6 1.3 2.9 2.9 2.9 1.6.1 2.9-1.2 2.9-2.9zm7.8-4.8h-5.8v4.9c0 1.6 1.3 2.9 2.9 2.9 1.6 0 2.9-1.3 2.9-2.9v-4.9zm-23.4 4.8v-4.9h-5.8v4.9c0 1.6 1.3 2.9 2.9 2.9 1.6.1 2.9-1.2 2.9-2.9zM7.6 30h9.7v1H7.6v-1zm0 25.3h9.7V35.8H7.6v19.5zm1-12.6h1.9v3.9H8.6v-3.9zm1-25.4v-4.9H3.7v4.9c0 1.6 1.3 2.9 2.9 2.9s3-1.2 3-2.9z"/></svg>