<svg xmlns="http://www.w3.org/2000/svg" viewBox="0 0 60 60"><path d="M14.9 17.7H45v3.5H14.9v-3.5zm0-3.5h10.2c-.2-.5-.3-1.1-.3-1.7 0-2.9 2.3-5.2 5.2-5.2s5.2 2.3 5.2 5.2c0 .6-.1 1.2-.3 1.7h12.9l1.3-1.2V6.7L32.6.3h-5.3L10.9 6.7V13l1.3 1.2h2.7zm16.8-1.7c0-1-.8-1.7-1.7-1.7s-1.7.8-1.7 1.7.8 1.7 1.7 1.7 1.7-.7 1.7-1.7zm14.2 27.9L33.2 59.7h18.2v-9c0-4.3-2.1-8.1-5.5-10.3zM30 41.9c6.2 0 11.2-5 11.2-11.2v-6H18.8v6c0 6.2 5 11.2 11.2 11.2zm12.3-3.1c-2 3-5.1 5.2-8.7 6.1L24 59.6h5.1l13.6-20.7c-.2 0-.3 0-.4-.1zm-24.6 0c-5.3 1.3-9.2 6.1-9.2 11.8v9h11.2l9.4-14.3c-4.7-.2-8.9-2.7-11.4-6.5z" fill="#050505"/></svg>