<?xml version="1.0" encoding="utf-8"?>
<svg xmlns="http://www.w3.org/2000/svg" viewBox="0 0 60 60">
  <path
    d="M21.6 48.4h16.7v1.9H21.6v-1.9zm5.6-22.2h5.6V28h-5.6v-1.8zM57.8
       7.6V3.9c0-.5-.4-.9-.9-.9H3.1c-.5 0-.9.4-.9.9v3.7c0 .5.4.9.9.9V53c-.5
       0-.9.4-.9.9v3.7c0 .5.4.9.9.9h53.8c.5 0 .9-.4.9-.9V54c0-.5-.4-.9-.9-.9V8.5c.5
       0 .9-.4.9-.9zM4 4.8h52v1.9H4V4.8zm41.8 48.3v-8.8c.5-.4.8-.9.9-1.5s-.1-1.2-.5-1.7c.6-.8.6-2
       0-2.8.6-.8.6-2 0-2.8.4-.5.5-1.1.5-1.7-.1-.6-.4-1.2-.9-1.5V8.5h5.6V53h-5.6zM14.2
       8.5v23.7c-.5.4-.8.9-.9 1.5-.1.6.1 1.2.5 1.7-.6.8-.6 2 0 2.8-.6.8-.6 2 0 2.8-.4.5-.5
       1.1-.5 1.7.1.6.4 1.2.9 1.5V53H8.7V8.5h5.5zm27.2
       31.6c-.2-.1-.3-.2-.3-.4s.1-.4.3-.4h3.1c.2.1.3.2.3.4s-.1.4-.3.4h-3.1zm3.4-3.3c0
       .2-.1.4-.3.4h-3.1c-.2-.1-.3-.2-.3-.4 0-.1 0-.2.1-.3.1-.1.2-.2.3-.2h2.8c.3.1.5.3.5.5zm-5.5
       1c0 .3-.2.5-.5.5s-.5-.2-.5-.5v-1.9c0-.1 0-.2.1-.3.1-.1.3-.2.5-.1s.3.2.3.4v1.9zm2.3 5.1c-.3
       0-.5-.2-.5-.5s.2-.5.5-.5h2.8c.3 0 .5.2.5.5s-.2.5-.5.5h-2.8zm0-8.4c-.3
       0-.5-.2-.5-.5s.2-.5.5-.5h2.8c.3 0 .5.2.5.5s-.2.5-.5.5h-2.8zm2.3-2.8H42V8.5h1.9v23.2zm-3.7.5c-.5.4-.8.9-.9
       1.4-.6-.1-1.2 0-1.7.3l-3.9-1.1v-1.1c2.8-1.4 4.6-4.3 4.6-7.5v-.9c.5 0
       .9-.4.9-.9v-2.8c0-4.3-3-8.1-7.2-9.1-1.4-.3-2.8-.3-4.1 0-4.2.9-7.2 4.7-7.2
       9.1v2.8c0 .5.4.9.9.9v.9c0 2.2.9 4.3 2.4 5.9.6.6 1.4 1.2 2.2 1.6v1.1l-3.9
       1.1c-.4-.2-.8-.3-1.2-.3-.2 0-.3
       0-.5.1-.1-.6-.4-1.1-.9-1.4V8.5h20.4v23.7zm-2.8-10.7c-1.5-.2-2.8-1.2-3.5-2.5l-.3-.6c-.1-.3-.4-.5-.7-.5-.3
       0-.6 0-.8.3l-1.5 1.5c-1.2 1.2-2.9 1.9-4.6 1.9h-3.4v-1.9c0-3.5 2.4-6.4 5.8-7.2
       1.1-.2 2.2-.2 3.3 0 3.4.8 5.8 3.8 5.8 7.2v1.8zm-13.9 1.9H26c2.2 0 4.3-.9
       5.9-2.4l.6-.6c.9 1.4 2.3 2.5 3.9 2.9v1.1c0 2.7-1.6 5-4.1
       6-.3.1-.5.2-.8.3-2.2.6-4.6-.1-6.2-1.7-1.2-1.2-1.9-2.9-1.9-4.6v-1zm4.6
       10.2v-1.1c1.2.3 2.5.3 3.7 0v1.1c0 .3.1.5.3.7L30 36.1l-2.2-1.8c.2-.2.3-.4.3-.7zm-9.2
       8.8c0 .3-.2.5-.5.5h-2.8c-.3 0-.5-.2-.5-.5s.2-.5.5-.5h2.8c.3 0
       .5.2.5.5zm-3.7-8.3c0-.3.2-.5.5-.5h2.8c.3 0 .5.2.5.5s-.2.5-.5.5h-2.8c-.3-.1-.5-.3-.5-.5zm3.7
       5.5c0 .3-.2.5-.5.5h-2.8c-.3
       0-.5-.2-.5-.5s.2-.5.5-.5h2.8c.3.1.5.3.5.5zm-3.7-2.8c0-.3.2-.5.5-.5h2.8c.3
       0 .5.2.5.5s-.2.5-.5.5h-2.8c-.3
       0-.5-.2-.5-.5zm5.5-.9c0-.3.2-.5.5-.5s.5.2.5.5v1.9c0
       .3-.2.5-.5.5s-.5-.2-.5-.5v-1.9zm-2.8-4.2H16V8.5h1.9v23.2zm-1.8
       13H18v8.4h-1.9v-8.4zm3.7-.5c.5-.4.8-.9.9-1.5.1-.6-.1-1.2-.5-1.7.2-.3.4-.6.4-1
       .2 0 .3.1.5.1 1.3 0 2.3-1 2.3-2.3v-2.2l2.3-.6 3.7 3.1c.3.3.8.3 1.2 0l3.7-3.1
       2.3.6v2.2c0 .7.3 1.4.9 1.8.6.4 1.3.6 2 .4.1.4.2.7.4 1-.4.5-.5 1.1-.4
       1.7.1.6.4 1.2.9 1.5V53H19.8v-8.8zm22.3.5H44v8.4h-1.9v-8.4zM4.9
       8.5h1.9V53H4.9V8.5zM56 56.8H4v-1.9h52v1.9zm-.9-3.7h-1.9V8.5h1.9v44.6zM23.5
       41h13v1.9h-13V41zm-1.9 3.7h16.7v1.9H21.6v-1.9z"
  />
</svg>
