<svg xmlns="http://www.w3.org/2000/svg" viewBox="0 0 60 60"><path d="M26.9 42.5h6.2v11.4h-6.2V42.5zM.9 56h13.5v2H.9v-2zm15.6-29.1h27V29h-27v-2.1zm-2.1 0c-1.1 0-2.1-.9-2.1-2.1h-7c-.4 0-.8.2-.9.6L2.6 29h11.8v-2.1zm27 27V31H18.6v22.8h6.2V41.4c0-.6.5-1 1-1h8.3c.6 0 1 .5 1 1v12.5h6.3zM27.9 36.2c0 .6-.5 1-1 1-.6 0-1-.5-1-1v-2.1c0-.6.5-1 1-1 .6 0 1 .5 1 1v2.1zm6.3 0c0 .6-.5 1-1 1-.6 0-1-.5-1-1v-2.1c0-.6.5-1 1-1 .6 0 1 .5 1 1v2.1zm6.1-19.4c-.2-.2-.5-.3-.7-.3h-20c-.3 0-.6.1-.8.4l-3.2 3.8h28.5l-3.8-3.9zm3.2-12.2L30 .9 16.5 4.5 30 8.2l13.5-3.6zM45.6 29h11.8l-1.8-3.6c-.2-.4-.5-.6-.9-.6h-7c0 1.1-.9 2.1-2.1 2.1V29zM29.5 10.2l-7.8-2.1v6.3h16.6V8.1l-7.8 2.1c-.3.1-.7.1-1 0zM14.4 22.7h31.2v2.1H14.4v-2.1zm2.1 8.3H2v22.8h14.5V31zM7.2 49.7c0 .6-.5 1-1 1s-1-.5-1-1v-2.1c0-.6.5-1 1-1s1 .5 1 1v2.1zm0-6.2c0 .6-.5 1-1 1s-1-.5-1-1v-2.1c0-.6.5-1 1-1s1 .5 1 1v2.1zm0-6.2c0 .6-.5 1-1 1s-1-.5-1-1v-2.1c0-.6.5-1 1-1s1 .5 1 1v2.1zm6.2 12.4c0 .6-.5 1-1 1s-1-.5-1-1v-2.1c0-.6.5-1 1-1s1 .5 1 1v2.1zm0-6.2c0 .6-.5 1-1 1s-1-.5-1-1v-2.1c0-.6.5-1 1-1s1 .5 1 1v2.1zm0-6.2c0 .6-.5 1-1 1s-1-.5-1-1v-2.1c0-.6.5-1 1-1s1 .5 1 1v2.1zM45.6 56h13.5v2H45.6v-2zm-11.4 0H16.6v3.1h27V56h-9.4zM58 31H43.5v22.8H58V31zm-9.3 18.7c0 .6-.5 1-1 1s-1-.5-1-1v-2.1c0-.6.5-1 1-1s1 .5 1 1v2.1zm0-6.2c0 .6-.5 1-1 1s-1-.5-1-1v-2.1c0-.6.5-1 1-1s1 .5 1 1v2.1zm0-6.2c0 .6-.5 1-1 1s-1-.5-1-1v-2.1c0-.6.5-1 1-1s1 .5 1 1v2.1zm6.2 12.4c0 .6-.5 1-1 1-.6 0-1-.5-1-1v-2.1c0-.6.5-1 1-1 .6 0 1 .5 1 1v2.1zm0-6.2c0 .6-.5 1-1 1-.6 0-1-.5-1-1v-2.1c0-.6.5-1 1-1 .6 0 1 .5 1 1v2.1zm0-6.2c0 .6-.5 1-1 1-.6 0-1-.5-1-1v-2.1c0-.6.5-1 1-1 .6 0 1 .5 1 1v2.1zM43.6 6.7h-2.1v3.9c0 1.1.5 2.1 1.4 2.7.3.2.7.2 1 .1.3-.2.6-.5.6-.9s-.2-.7-.5-.9c-.3-.2-.5-.6-.5-.9l.1-4z" fill="#020202"/></svg>