<svg xmlns="http://www.w3.org/2000/svg" viewBox="0 0 60 60"><path d="M45.4 31.4H52v15.8h-6.6V31.4zm-12.5 0h6.6v15.8h-6.6V31.4zm-12.4 0h6.6v15.8h-6.6V31.4zM8 31.4h6.6v15.8H8V31.4zm46.2-5v-1.6H5.8v1.6c0 .9.7 1.6 1.6 1.6h45.2c.9.1 1.6-.7 1.6-1.6zm2.3 24.1h-53c-.9 0-1.6.7-1.6 1.6v4.4c0 .9.7 1.6 1.6 1.6h53c.9 0 1.6-.7 1.6-1.6v-4.4c.1-.9-.7-1.6-1.6-1.6zm-53-29h53c.7 0 1.4-.5 1.6-1.2.2-.7-.1-1.5-.7-1.9L30.9 2.1c-.5-.3-1.2-.3-1.7 0L2.6 18.4c-.6.4-.9 1.1-.7 1.9s.9 1.2 1.6 1.2zm25.4-10h2.2c.9 0 1.6.7 1.6 1.6s-.7 1.6-1.6 1.6h-2.2c-.9 0-1.6-.7-1.6-1.6s.7-1.6 1.6-1.6z"/></svg>