<?xml version="1.0" encoding="utf-8"?>
<svg xmlns="http://www.w3.org/2000/svg" viewBox="0 0 60 60">
  <path
    d="M51.8 32.1v-5.2h-5.6c-.6-6.5-5.5-11.8-12.1-13.3.2-.5.3-.9.3-1.5
       0-1.3-.6-2.5-1.6-3.3.4-.6.7-1.3.7-2 0-1-.5-2-1.2-2.6.2-.4.3-.8.3-1.3
       0-1.4-1.1-2.5-2.5-2.5s-2.5 1.1-2.5 2.5c0 .5.1.9.3 1.3-.8.6-1.2 1.6-1.2
       2.6 0 .7.2 1.4.7 2-1 .8-1.6 2-1.6 3.3 0 .5.1 1 .3 1.5-6.6 1.6-11.6 6.9-12.1
       13.3H8.2v5.2H0v27.5h25.2V48h9.6v11.5H60V32.1h-8.2zM28.5
       9.4l.8-.4-.7-.6c-.5-.4-.8-1-.8-1.6 0-.8.5-1.5 1.2-1.9l.8-.4-.7-.6c-.3-.2-.4-.6-.4-.9
       0-.7.6-1.2 1.2-1.2.7 0 1.2.6 1.2 1.2 0 .4-.2.7-.4.9l-.7.6.8.4c.7.4 1.2 1.1
       1.2 1.9 0 .6-.3 1.2-.8 1.6l-.7.6.8.4c1 .5 1.6 1.6 1.6 2.7 0
       .4-.1.8-.3 1.2-.7-.2-1.6-.3-2.6-.3s-1.9.1-2.8.2c-.1-.3-.2-.7-.2-1.2-.1-1.1.6-2.1
       1.5-2.6zM10.7 29.3h4.6l.4-.6C16.9 26.9 22.3 25 30 25s13.1 1.9 14.3
       3.8l.4.6h4.6v2.7H10.7v-2.8zM16.1 54H6.8v-9.4h9.3V54zM18 43.3H4.8v-2.4h3.5c.7-1
       1.8-1.7 3.1-1.7s2.5.7 3.1 1.7H18v2.4zm18.6 3.4H23.4v-2.4h3.5c.7-1
       1.8-1.7 3.1-1.7s2.5.7 3.1 1.7h3.5v2.4zM53.3
       54H44v-9.4h9.3V54zm1.9-10.7H42v-2.4h3.5c.7-1 1.8-1.7 3.1-1.7s2.5.7 3.1 1.7h3.5v2.4z"
  />
</svg>
